<?xml version="1.0" encoding="UTF-8" standalone="no"?>
<!-- Created with Bouml (http://bouml.free.fr/) -->
<!DOCTYPE svg PUBLIC "-//W3C//DTD SVG 1.1//EN" "http://www.w3.org/Graphics/SVG/1.1/DTD/svg11.dtd">
<svg width="828" height="1070" version="1.1" xmlns="http://www.w3.org/2000/svg">
<g>
	<rect fill="#ededed" stroke="black" stroke-width="1" stroke-opacity="1" x="3" y="211" width="209" height="19" />
	<rect fill="#808080" stroke="none" stroke-opacity="1" x="212" y="215" width="3" height="14" />
	<rect fill="#ededed" stroke="black" stroke-width="1" stroke-opacity="1" x="3" y="230" width="526" height="205" />
	<rect fill="#808080" stroke="none" stroke-opacity="1" x="529" y="234" width="3" height="204" />
	<rect fill="#808080" stroke="none" stroke-opacity="1" x="7" y="435" width="525" height="3" />
	<text font-family="Helvetica" font-size="9" fill="#000000" xml:space="preserve" text-anchor="middle" x="266" y="242">controller</text>
</g>
<g>
	<rect fill="#808080" stroke="none" stroke-opacity="1" x="515" y="261" width="3" height="83" />
	<rect fill="#808080" stroke="none" stroke-opacity="1" x="409" y="341" width="109" height="3" />
	<rect fill="#ffffc0" stroke="black" stroke-width="1" stroke-opacity="1" x="405" y="257" width="110" height="84" />
	<text font-family="Helvetica" font-size="9" fill="#000000" xml:space="preserve" font-weight="bold" text-anchor="middle" x="460" y="268">LinkageController</text>
	<line stroke="black" stroke-opacity="1" x1="405" y1="277" x2="515" y2="277" />
	<line stroke="black" stroke-opacity="1" x1="405" y1="285" x2="515" y2="285" />
	<text font-family="Helvetica" font-size="9" fill="#000000" xml:space="preserve" x="409" y="296">importLinkage()</text>
	<text font-family="Helvetica" font-size="9" fill="#000000" xml:space="preserve" x="409" y="314">removeAll()</text>
	<text font-family="Helvetica" font-size="9" fill="#000000" xml:space="preserve" text-decoration="underline" x="409" y="332">main()</text>
</g>
<g>
	<rect fill="#808080" stroke="none" stroke-opacity="1" x="248" y="263" width="3" height="119" />
	<rect fill="#808080" stroke="none" stroke-opacity="1" x="162" y="379" width="89" height="3" />
	<rect fill="#ffffc0" stroke="black" stroke-width="1" stroke-opacity="1" x="158" y="259" width="90" height="120" />
	<text font-family="Helvetica" font-size="9" fill="#000000" xml:space="preserve" font-weight="bold" text-anchor="middle" x="203" y="270">PMVController</text>
	<line stroke="black" stroke-opacity="1" x1="158" y1="279" x2="248" y2="279" />
	<line stroke="black" stroke-opacity="1" x1="158" y1="287" x2="248" y2="287" />
	<text font-family="Helvetica" font-size="9" fill="#000000" xml:space="preserve" x="162" y="298">importPMV()</text>
	<text font-family="Helvetica" font-size="9" fill="#000000" xml:space="preserve" x="162" y="316">add()</text>
	<text font-family="Helvetica" font-size="9" fill="#000000" xml:space="preserve" x="162" y="334">getAll()</text>
	<text font-family="Helvetica" font-size="9" fill="#000000" xml:space="preserve" x="162" y="352">removeAll()</text>
	<text font-family="Helvetica" font-size="9" fill="#000000" xml:space="preserve" text-decoration="underline" x="162" y="370">main()</text>
</g>
<g>
	<rect fill="#ededed" stroke="black" stroke-width="1" stroke-opacity="1" x="19" y="610" width="189" height="19" />
	<rect fill="#808080" stroke="none" stroke-opacity="1" x="208" y="614" width="3" height="14" />
	<rect fill="#ededed" stroke="black" stroke-width="1" stroke-opacity="1" x="19" y="629" width="476" height="425" />
	<rect fill="#808080" stroke="none" stroke-opacity="1" x="495" y="633" width="3" height="424" />
	<rect fill="#808080" stroke="none" stroke-opacity="1" x="23" y="1054" width="475" height="3" />
	<text font-family="Helvetica" font-size="9" fill="#000000" xml:space="preserve" text-anchor="middle" x="257" y="641">model</text>
</g>
<g>
	<rect fill="#808080" stroke="none" stroke-opacity="1" x="386" y="260" width="3" height="119" />
	<rect fill="#808080" stroke="none" stroke-opacity="1" x="278" y="376" width="111" height="3" />
	<rect fill="#ffffc0" stroke="black" stroke-width="1" stroke-opacity="1" x="274" y="256" width="112" height="120" />
	<text font-family="Helvetica" font-size="9" fill="#000000" xml:space="preserve" font-weight="bold" text-anchor="middle" x="330" y="267">ItineraryController</text>
	<line stroke="black" stroke-opacity="1" x1="274" y1="276" x2="386" y2="276" />
	<line stroke="black" stroke-opacity="1" x1="274" y1="284" x2="386" y2="284" />
	<text font-family="Helvetica" font-size="9" fill="#000000" xml:space="preserve" x="278" y="295">importItinerary()</text>
	<text font-family="Helvetica" font-size="9" fill="#000000" xml:space="preserve" x="278" y="313">add()</text>
	<text font-family="Helvetica" font-size="9" fill="#000000" xml:space="preserve" x="278" y="331">getAll()</text>
	<text font-family="Helvetica" font-size="9" fill="#000000" xml:space="preserve" x="278" y="349">removeAll()</text>
	<text font-family="Helvetica" font-size="9" fill="#000000" xml:space="preserve" text-decoration="underline" x="278" y="367">main()</text>
</g>
<g>
	<rect fill="#ededed" stroke="black" stroke-width="1" stroke-opacity="1" x="618" y="232" width="77" height="19" />
	<rect fill="#808080" stroke="none" stroke-opacity="1" x="695" y="236" width="3" height="14" />
	<rect fill="#ededed" stroke="black" stroke-width="1" stroke-opacity="1" x="618" y="251" width="194" height="181" />
	<rect fill="#808080" stroke="none" stroke-opacity="1" x="812" y="255" width="3" height="180" />
	<rect fill="#808080" stroke="none" stroke-opacity="1" x="622" y="432" width="193" height="3" />
	<text font-family="Helvetica" font-size="9" fill="#000000" xml:space="preserve" text-anchor="middle" x="715" y="263">utilities</text>
</g>
<g>
	<rect fill="#808080" stroke="none" stroke-opacity="1" x="133" y="263" width="3" height="137" />
	<rect fill="#808080" stroke="none" stroke-opacity="1" x="17" y="397" width="119" height="3" />
	<rect fill="#ffffc0" stroke="black" stroke-width="1" stroke-opacity="1" x="13" y="259" width="120" height="138" />
	<text font-family="Helvetica" font-size="9" fill="#000000" xml:space="preserve" font-weight="bold" text-anchor="middle" x="73" y="270">StatsPMVController</text>
	<line stroke="black" stroke-opacity="1" x1="13" y1="279" x2="133" y2="279" />
	<line stroke="black" stroke-opacity="1" x1="13" y1="287" x2="133" y2="287" />
	<text font-family="Helvetica" font-size="9" fill="#000000" xml:space="preserve" x="17" y="298">importAPI()</text>
	<text font-family="Helvetica" font-size="9" fill="#000000" xml:space="preserve" x="17" y="316">add()</text>
	<text font-family="Helvetica" font-size="9" fill="#000000" xml:space="preserve" x="17" y="334">getAll()</text>
	<text font-family="Helvetica" font-size="9" fill="#000000" xml:space="preserve" x="17" y="352">getItinerariesStats()</text>
	<text font-family="Helvetica" font-size="9" fill="#000000" xml:space="preserve" x="17" y="370">removeAll()</text>
	<text font-family="Helvetica" font-size="9" fill="#000000" xml:space="preserve" text-decoration="underline" x="17" y="388">main()</text>
</g>
<g>
	<line stroke="black" stroke-opacity="1" x1="75" y1="258" x2="75" y2="108" />
</g>
<g>
	<rect fill="#808080" stroke="none" stroke-opacity="1" x="207" y="474" width="3" height="101" />
	<rect fill="#808080" stroke="none" stroke-opacity="1" x="107" y="572" width="103" height="3" />
	<rect fill="#ffffc0" stroke="black" stroke-width="1" stroke-opacity="1" x="103" y="470" width="104" height="102" />
	<text font-family="Helvetica" font-size="9" fill="#000000" xml:space="preserve" font-weight="bold" text-anchor="middle" x="155" y="481">PMVServlet</text>
	<line stroke="black" stroke-opacity="1" x1="103" y1="490" x2="207" y2="490" />
	<line stroke="black" stroke-opacity="1" x1="103" y1="498" x2="207" y2="498" />
	<text font-family="Helvetica" font-size="9" fill="#000000" xml:space="preserve" x="107" y="509">processRequest()</text>
	<text font-family="Helvetica" font-size="9" fill="#000000" xml:space="preserve" x="107" y="527">doGet()</text>
	<text font-family="Helvetica" font-size="9" fill="#000000" xml:space="preserve" x="107" y="545">doPost()</text>
	<text font-family="Helvetica" font-size="9" fill="#000000" xml:space="preserve" x="107" y="563">getServletInfo()</text>
</g>
<g>
	<line stroke="black" stroke-opacity="1" x1="102" y1="478" x2="75" y2="478" />
</g>
<g>
	<line stroke="black" stroke-opacity="1" x1="185" y1="383" x2="179" y2="389" />
	<line stroke="black" stroke-opacity="1" x1="185" y1="383" x2="191" y2="389" />
	<line stroke="black" stroke-opacity="1" x1="185" y1="469" x2="185" y2="383" />
</g>
<g>
	<line stroke="black" stroke-opacity="1" x1="75" y1="401" x2="69" y2="407" />
	<line stroke="black" stroke-opacity="1" x1="75" y1="401" x2="81" y2="407" />
	<line stroke="black" stroke-opacity="1" x1="75" y1="478" x2="75" y2="401" />
</g>
<g>
	<text font-family="Helvetica" font-size="9" fill="#000000" xml:space="preserve" x="85" y="418">statsPmvContr</text>
</g>
<g>
	<text font-family="Helvetica" font-size="9" fill="#000000" xml:space="preserve" x="195" y="400">pmvContr</text>
</g>
<g>
	<text font-family="Helvetica" font-size="9" fill="#000000" xml:space="preserve" x="310" y="705">itineraries</text>
</g>
<g>
	<text font-family="Helvetica" font-size="9" fill="#000000" xml:space="preserve" text-decoration="underline" x="96" y="37">instance</text>
</g>
<g>
	<rect fill="#808080" stroke="none" stroke-opacity="1" x="287" y="17" width="3" height="185" />
	<rect fill="#808080" stroke="none" stroke-opacity="1" x="157" y="199" width="133" height="3" />
	<rect fill="#ffffc0" stroke="black" stroke-width="1" stroke-opacity="1" x="153" y="13" width="134" height="186" />
	<text font-family="Helvetica" font-size="9" fill="#000000" xml:space="preserve" font-weight="bold" text-anchor="middle" x="220" y="24">DataBaseManager</text>
	<line stroke="black" stroke-opacity="1" x1="153" y1="33" x2="287" y2="33" />
	<text font-family="Helvetica" font-size="9" fill="#000000" xml:space="preserve" x="157" y="44">con</text>
	<line stroke="black" stroke-opacity="1" x1="153" y1="53" x2="287" y2="53" />
	<text font-family="Helvetica" font-size="9" fill="#000000" xml:space="preserve" x="157" y="64">DataBaseManager()</text>
	<text font-family="Helvetica" font-size="9" fill="#000000" xml:space="preserve" x="157" y="82">createTableStatsPMV()</text>
	<text font-family="Helvetica" font-size="9" fill="#000000" xml:space="preserve" x="157" y="100">createTablePMV()</text>
	<text font-family="Helvetica" font-size="9" fill="#000000" xml:space="preserve" x="157" y="118">createTableItinerary()</text>
	<text font-family="Helvetica" font-size="9" fill="#000000" xml:space="preserve" x="157" y="136">createTableLinkage()</text>
	<text font-family="Helvetica" font-size="9" fill="#000000" xml:space="preserve" x="157" y="154">getCon()</text>
	<text font-family="Helvetica" font-size="9" fill="#000000" xml:space="preserve" text-decoration="underline" x="157" y="172">getInstance()</text>
	<text font-family="Helvetica" font-size="9" fill="#000000" xml:space="preserve" text-decoration="underline" x="157" y="190">main()</text>
</g>
<g>
	<line stroke="black" stroke-opacity="1" x1="221" y1="203" x2="215" y2="209" />
	<line stroke="black" stroke-opacity="1" x1="221" y1="203" x2="227" y2="209" />
	<line stroke="black" stroke-opacity="1" x1="221" y1="258" x2="221" y2="203" />
</g>
<g>
	<line stroke="black" stroke-opacity="1" x1="125" y1="21" x2="124" y2="49" />
</g>
<g>
	<line stroke="black" stroke-opacity="1" x1="462" y1="256" x2="462" y2="111" />
</g>
<g>
	<line stroke="black" stroke-opacity="1" x1="152" y1="49" x2="146" y2="43" />
	<line stroke="black" stroke-opacity="1" x1="152" y1="49" x2="146" y2="55" />
	<line stroke="black" stroke-opacity="1" x1="124" y1="49" x2="152" y2="49" />
</g>
<g>
	<line stroke="black" stroke-opacity="1" x1="152" y1="21" x2="125" y2="21" />
</g>
<g>
	<line stroke="black" stroke-opacity="1" x1="152" y1="108" x2="146" y2="102" />
	<line stroke="black" stroke-opacity="1" x1="152" y1="108" x2="146" y2="114" />
	<line stroke="black" stroke-opacity="1" x1="75" y1="108" x2="152" y2="108" />
</g>
<g>
	<line stroke="black" stroke-opacity="1" x1="331" y1="255" x2="331" y2="173" />
</g>
<g>
	<line stroke="black" stroke-opacity="1" x1="291" y1="173" x2="297" y2="179" />
	<line stroke="black" stroke-opacity="1" x1="291" y1="173" x2="297" y2="167" />
	<line stroke="black" stroke-opacity="1" x1="331" y1="173" x2="291" y2="173" />
</g>
<g>
	<line stroke="black" stroke-opacity="1" x1="291" y1="111" x2="297" y2="117" />
	<line stroke="black" stroke-opacity="1" x1="291" y1="111" x2="297" y2="105" />
	<line stroke="black" stroke-opacity="1" x1="462" y1="111" x2="291" y2="111" />
</g>
<g>
	<rect fill="#808080" stroke="none" stroke-opacity="1" x="469" y="680" width="3" height="257" />
	<rect fill="#808080" stroke="none" stroke-opacity="1" x="379" y="934" width="93" height="3" />
	<rect fill="#ffffc0" stroke="black" stroke-width="1" stroke-opacity="1" x="375" y="676" width="94" height="258" />
	<text font-family="Helvetica" font-size="9" fill="#000000" xml:space="preserve" font-weight="bold" text-anchor="middle" x="422" y="687">Itinerary</text>
	<line stroke="black" stroke-opacity="1" x1="375" y1="696" x2="469" y2="696" />
	<text font-family="Helvetica" font-size="9" fill="#000000" xml:space="preserve" x="379" y="707">id</text>
	<text font-family="Helvetica" font-size="9" fill="#000000" xml:space="preserve" x="379" y="725">numero</text>
	<text font-family="Helvetica" font-size="9" fill="#000000" xml:space="preserve" x="379" y="743">origine</text>
	<text font-family="Helvetica" font-size="9" fill="#000000" xml:space="preserve" x="379" y="761">destination</text>
	<line stroke="black" stroke-opacity="1" x1="375" y1="770" x2="469" y2="770" />
	<text font-family="Helvetica" font-size="9" fill="#000000" xml:space="preserve" x="379" y="781">Itinerary()</text>
	<text font-family="Helvetica" font-size="9" fill="#000000" xml:space="preserve" x="379" y="799">getId()</text>
	<text font-family="Helvetica" font-size="9" fill="#000000" xml:space="preserve" x="379" y="817">getNumero()</text>
	<text font-family="Helvetica" font-size="9" fill="#000000" xml:space="preserve" x="379" y="835">getOrigine()</text>
	<text font-family="Helvetica" font-size="9" fill="#000000" xml:space="preserve" x="379" y="853">getDestination()</text>
	<text font-family="Helvetica" font-size="9" fill="#000000" xml:space="preserve" x="379" y="871">setId()</text>
	<text font-family="Helvetica" font-size="9" fill="#000000" xml:space="preserve" x="379" y="889">setNumero()</text>
	<text font-family="Helvetica" font-size="9" fill="#000000" xml:space="preserve" x="379" y="907">setOrigine()</text>
	<text font-family="Helvetica" font-size="9" fill="#000000" xml:space="preserve" x="379" y="925">setDestination()</text>
</g>
<g>
	<line stroke="black" stroke-opacity="1" x1="423" y1="675" x2="423" y2="526" />
</g>
<g>
	<line stroke="black" stroke-opacity="1" x1="423" y1="526" x2="332" y2="526" />
</g>
<g>
	<line stroke="black" stroke-opacity="1" x1="332" y1="526" x2="332" y2="380" />
</g>
<g>
	<rect fill="#808080" stroke="none" stroke-opacity="1" x="283" y="679" width="3" height="365" />
	<rect fill="#808080" stroke="none" stroke-opacity="1" x="189" y="1041" width="97" height="3" />
	<rect fill="#ffffc0" stroke="black" stroke-width="1" stroke-opacity="1" x="185" y="675" width="98" height="366" />
	<text font-family="Helvetica" font-size="9" fill="#000000" xml:space="preserve" font-weight="bold" text-anchor="middle" x="234" y="686">PMV</text>
	<line stroke="black" stroke-opacity="1" x1="185" y1="695" x2="283" y2="695" />
	<text font-family="Helvetica" font-size="9" fill="#000000" xml:space="preserve" x="189" y="706">id</text>
	<text font-family="Helvetica" font-size="9" fill="#000000" xml:space="preserve" x="189" y="724">sens</text>
	<text font-family="Helvetica" font-size="9" fill="#000000" xml:space="preserve" x="189" y="742">indic_temps</text>
	<text font-family="Helvetica" font-size="9" fill="#000000" xml:space="preserve" x="189" y="760">longitude</text>
	<text font-family="Helvetica" font-size="9" fill="#000000" xml:space="preserve" x="189" y="778">latitude</text>
	<line stroke="black" stroke-opacity="1" x1="185" y1="787" x2="283" y2="787" />
	<text font-family="Helvetica" font-size="9" fill="#000000" xml:space="preserve" x="189" y="798">PMV()</text>
	<text font-family="Helvetica" font-size="9" fill="#000000" xml:space="preserve" x="189" y="816">getId()</text>
	<text font-family="Helvetica" font-size="9" fill="#000000" xml:space="preserve" x="189" y="834">getSens()</text>
	<text font-family="Helvetica" font-size="9" fill="#000000" xml:space="preserve" x="189" y="852">isIndic_temps()</text>
	<text font-family="Helvetica" font-size="9" fill="#000000" xml:space="preserve" x="189" y="870">getLongitude()</text>
	<text font-family="Helvetica" font-size="9" fill="#000000" xml:space="preserve" x="189" y="888">getLatitude()</text>
	<text font-family="Helvetica" font-size="9" fill="#000000" xml:space="preserve" x="189" y="906">getItineraries()</text>
	<text font-family="Helvetica" font-size="9" fill="#000000" xml:space="preserve" x="189" y="924">setId()</text>
	<text font-family="Helvetica" font-size="9" fill="#000000" xml:space="preserve" x="189" y="942">setSens()</text>
	<text font-family="Helvetica" font-size="9" fill="#000000" xml:space="preserve" x="189" y="960">setIndic_temps()</text>
	<text font-family="Helvetica" font-size="9" fill="#000000" xml:space="preserve" x="189" y="978">setLongitude()</text>
	<text font-family="Helvetica" font-size="9" fill="#000000" xml:space="preserve" x="189" y="996">setLatitude()</text>
	<text font-family="Helvetica" font-size="9" fill="#000000" xml:space="preserve" x="189" y="1014">setItineraries()</text>
	<text font-family="Helvetica" font-size="9" fill="#000000" xml:space="preserve" x="189" y="1032">toString()</text>
</g>
<g>
	<text font-family="Helvetica" font-size="9" fill="#000000" xml:space="preserve" x="303" y="690">&lt;&lt;List&gt;&gt;</text>
</g>
<g>
	<line stroke="black" stroke-opacity="1" x1="234" y1="674" x2="234" y2="646" />
</g>
<g>
	<line stroke="black" stroke-opacity="1" x1="287" y1="717" x2="320" y2="717" />
</g>
<g>
	<line stroke="black" stroke-opacity="1" x1="374" y1="717" x2="368" y2="711" />
	<line stroke="black" stroke-opacity="1" x1="374" y1="717" x2="368" y2="723" />
	<line stroke="black" stroke-opacity="1" x1="320" y1="717" x2="374" y2="717" />
</g>
<g>
	<line stroke="black" stroke-opacity="1" x1="234" y1="646" x2="234" y2="500" />
</g>
<g>
	<line stroke="black" stroke-opacity="1" x1="234" y1="500" x2="234" y2="383" />
</g>
<g>
	<rect fill="#808080" stroke="none" stroke-opacity="1" x="137" y="678" width="3" height="257" />
	<rect fill="#808080" stroke="none" stroke-opacity="1" x="55" y="932" width="85" height="3" />
	<rect fill="#ffffc0" stroke="black" stroke-width="1" stroke-opacity="1" x="51" y="674" width="86" height="258" />
	<text font-family="Helvetica" font-size="9" fill="#000000" xml:space="preserve" font-weight="bold" text-anchor="middle" x="94" y="685">ItineraryStats</text>
	<line stroke="black" stroke-opacity="1" x1="51" y1="694" x2="137" y2="694" />
	<text font-family="Helvetica" font-size="9" fill="#000000" xml:space="preserve" x="55" y="705">id</text>
	<text font-family="Helvetica" font-size="9" fill="#000000" xml:space="preserve" x="55" y="723">time</text>
	<text font-family="Helvetica" font-size="9" fill="#000000" xml:space="preserve" x="55" y="741">dateD</text>
	<text font-family="Helvetica" font-size="9" fill="#000000" xml:space="preserve" x="55" y="759">hourH</text>
	<line stroke="black" stroke-opacity="1" x1="51" y1="768" x2="137" y2="768" />
	<text font-family="Helvetica" font-size="9" fill="#000000" xml:space="preserve" x="55" y="779">ItineraryStats()</text>
	<text font-family="Helvetica" font-size="9" fill="#000000" xml:space="preserve" x="55" y="797">getId()</text>
	<text font-family="Helvetica" font-size="9" fill="#000000" xml:space="preserve" x="55" y="815">getTime()</text>
	<text font-family="Helvetica" font-size="9" fill="#000000" xml:space="preserve" x="55" y="833">getHour()</text>
	<text font-family="Helvetica" font-size="9" fill="#000000" xml:space="preserve" x="55" y="851">getDate()</text>
	<text font-family="Helvetica" font-size="9" fill="#000000" xml:space="preserve" x="55" y="869">setDate()</text>
	<text font-family="Helvetica" font-size="9" fill="#000000" xml:space="preserve" x="55" y="887">reverseDate()</text>
	<text font-family="Helvetica" font-size="9" fill="#000000" xml:space="preserve" x="55" y="905">toString()</text>
	<text font-family="Helvetica" font-size="9" fill="#000000" xml:space="preserve" x="55" y="923">compareTo()</text>
</g>
<g>
	<line stroke="black" stroke-opacity="1" x1="50" y1="699" x2="36" y2="699" />
</g>
<g>
	<line stroke="black" stroke-opacity="1" x1="36" y1="699" x2="36" y2="480" />
</g>
<g>
	<line stroke="black" stroke-opacity="1" x1="36" y1="480" x2="36" y2="401" />
</g>
</svg>
